<?xml version="1.0" encoding="UTF-8" standalone="no"?>
<!DOCTYPE svg PUBLIC "-//W3C//DTD SVG 1.1//EN"
 "http://www.w3.org/Graphics/SVG/1.1/DTD/svg11.dtd">
<!-- Generated by graphviz version 2.43.0 (0)
 -->
<!-- Title: setup Pages: 1 -->
<svg width="478pt" height="348pt"
 viewBox="0.00 0.00 478.00 348.00" xmlns="http://www.w3.org/2000/svg" xmlns:xlink="http://www.w3.org/1999/xlink">
<g id="graph0" class="graph" transform="scale(1 1) rotate(0) translate(4 344)">
<title>setup</title>
<!-- Node1 -->
<g id="node1" class="node">
<title>Node1</title>
<g id="a_node1"><a xlink:title=" ">
<polygon fill="#bfbfbf" stroke="black" points="0,-140.5 0,-161.5 47,-161.5 47,-140.5 0,-140.5"/>
<text text-anchor="middle" x="23.5" y="-147.9" font-family="Unifont" font-size="12.00">setup</text>
</a>
</g>
</g>
<!-- Node2 -->
<g id="node2" class="node">
<title>Node2</title>
<g id="a_node2"><a xlink:title=" ">
<polygon fill="none" stroke="black" points="107,-280.5 107,-301.5 184,-301.5 184,-280.5 107,-280.5"/>
<text text-anchor="middle" x="145.5" y="-287.9" font-family="Unifont" font-size="12.00">init_alarm</text>
</a>
</g>
</g>
<!-- Node1&#45;&gt;Node2 -->
<g id="edge1" class="edge">
<title>Node1&#45;&gt;Node2</title>
<path fill="none" stroke="midnightblue" d="M26.73,-161.7C32.15,-185.01 48.2,-240.73 83,-271 87.24,-274.68 92.16,-277.69 97.35,-280.15"/>
<polygon fill="midnightblue" stroke="midnightblue" points="96.29,-283.49 106.87,-284 98.91,-277 96.29,-283.49"/>
</g>
<!-- Node6 -->
<g id="node6" class="node">
<title>Node6</title>
<g id="a_node6"><a xlink:title=" ">
<polygon fill="none" stroke="black" points="101,-240.5 101,-261.5 190,-261.5 190,-240.5 101,-240.5"/>
<text text-anchor="middle" x="145.5" y="-247.9" font-family="Unifont" font-size="12.00">initPassword</text>
</a>
</g>
</g>
<!-- Node1&#45;&gt;Node6 -->
<g id="edge5" class="edge">
<title>Node1&#45;&gt;Node6</title>
<path fill="none" stroke="midnightblue" d="M29.55,-161.74C38.15,-178.86 57.22,-212.33 83,-231 85.68,-232.94 88.56,-234.7 91.56,-236.3"/>
<polygon fill="midnightblue" stroke="midnightblue" points="90.28,-239.56 100.82,-240.6 93.23,-233.21 90.28,-239.56"/>
</g>
<!-- Node8 -->
<g id="node8" class="node">
<title>Node8</title>
<g id="a_node8"><a xlink:title=" ">
<polygon fill="none" stroke="black" points="89,-200.5 89,-221.5 202,-221.5 202,-200.5 89,-200.5"/>
<text text-anchor="middle" x="145.5" y="-207.9" font-family="Unifont" font-size="12.00">poll_alarm_state</text>
</a>
</g>
</g>
<!-- Node1&#45;&gt;Node8 -->
<g id="edge8" class="edge">
<title>Node1&#45;&gt;Node8</title>
<path fill="none" stroke="midnightblue" d="M37.77,-161.71C49.2,-170.52 66.44,-182.86 83,-191 87.37,-193.15 92.02,-195.14 96.73,-196.97"/>
<polygon fill="midnightblue" stroke="midnightblue" points="95.83,-200.37 106.43,-200.5 98.22,-193.79 95.83,-200.37"/>
</g>
<!-- Node10 -->
<g id="node10" class="node">
<title>Node10</title>
<g id="a_node10"><a xlink:title=" ">
<polygon fill="none" stroke="black" points="107,-160.5 107,-181.5 184,-181.5 184,-160.5 107,-160.5"/>
<text text-anchor="middle" x="145.5" y="-167.9" font-family="Unifont" font-size="12.00">readKeypad</text>
</a>
</g>
</g>
<!-- Node1&#45;&gt;Node10 -->
<g id="edge10" class="edge">
<title>Node1&#45;&gt;Node10</title>
<path fill="none" stroke="midnightblue" d="M47.07,-154.76C61.15,-157.11 79.8,-160.22 97.01,-163.08"/>
<polygon fill="midnightblue" stroke="midnightblue" points="96.49,-166.55 106.93,-164.74 97.64,-159.64 96.49,-166.55"/>
</g>
<!-- Node14 -->
<g id="node14" class="node">
<title>Node14</title>
<g id="a_node14"><a xlink:title=" ">
<polygon fill="none" stroke="black" points="104,-120.5 104,-141.5 187,-141.5 187,-120.5 104,-120.5"/>
<text text-anchor="middle" x="145.5" y="-127.9" font-family="Unifont" font-size="12.00">timer1_init</text>
</a>
</g>
</g>
<!-- Node1&#45;&gt;Node14 -->
<g id="edge14" class="edge">
<title>Node1&#45;&gt;Node14</title>
<path fill="none" stroke="midnightblue" d="M47.07,-147.24C60.23,-145.05 77.38,-142.19 93.62,-139.48"/>
<polygon fill="midnightblue" stroke="midnightblue" points="94.28,-142.92 103.57,-137.82 93.13,-136.01 94.28,-142.92"/>
</g>
<!-- Node15 -->
<g id="node15" class="node">
<title>Node15</title>
<g id="a_node15"><a xlink:title=" ">
<polygon fill="none" stroke="black" points="83,-80.5 83,-101.5 208,-101.5 208,-80.5 83,-80.5"/>
<text text-anchor="middle" x="145.5" y="-87.9" font-family="Unifont" font-size="12.00">timer1_setCallback</text>
</a>
</g>
</g>
<!-- Node1&#45;&gt;Node15 -->
<g id="edge15" class="edge">
<title>Node1&#45;&gt;Node15</title>
<path fill="none" stroke="midnightblue" d="M37.77,-140.29C49.2,-131.48 66.44,-119.14 83,-111 87.37,-108.85 92.02,-106.86 96.73,-105.03"/>
<polygon fill="midnightblue" stroke="midnightblue" points="98.22,-108.21 106.43,-101.5 95.83,-101.63 98.22,-108.21"/>
</g>
<!-- Node16 -->
<g id="node16" class="node">
<title>Node16</title>
<g id="a_node16"><a xlink:title=" ">
<polygon fill="none" stroke="black" points="104,-40.5 104,-61.5 187,-61.5 187,-40.5 104,-40.5"/>
<text text-anchor="middle" x="145.5" y="-47.9" font-family="Unifont" font-size="12.00">timer2_init</text>
</a>
</g>
</g>
<!-- Node1&#45;&gt;Node16 -->
<g id="edge16" class="edge">
<title>Node1&#45;&gt;Node16</title>
<path fill="none" stroke="midnightblue" d="M29.55,-140.26C38.15,-123.14 57.22,-89.67 83,-71 86.48,-68.48 90.29,-66.27 94.26,-64.33"/>
<polygon fill="midnightblue" stroke="midnightblue" points="95.9,-67.43 103.72,-60.27 93.15,-60.99 95.9,-67.43"/>
</g>
<!-- Node17 -->
<g id="node17" class="node">
<title>Node17</title>
<g id="a_node17"><a xlink:title=" ">
<polygon fill="none" stroke="black" points="83,-0.5 83,-21.5 208,-21.5 208,-0.5 83,-0.5"/>
<text text-anchor="middle" x="145.5" y="-7.9" font-family="Unifont" font-size="12.00">timer2_setCallback</text>
</a>
</g>
</g>
<!-- Node1&#45;&gt;Node17 -->
<g id="edge17" class="edge">
<title>Node1&#45;&gt;Node17</title>
<path fill="none" stroke="midnightblue" d="M26.73,-140.3C32.15,-116.99 48.2,-61.27 83,-31 84.93,-29.32 87,-27.79 89.17,-26.38"/>
<polygon fill="midnightblue" stroke="midnightblue" points="90.88,-29.43 97.97,-21.56 87.52,-23.29 90.88,-29.43"/>
</g>
<!-- Node3 -->
<g id="node3" class="node">
<title>Node3</title>
<g id="a_node3"><a xlink:title=" ">
<polygon fill="none" stroke="black" points="384,-259.5 384,-280.5 467,-280.5 467,-259.5 384,-259.5"/>
<text text-anchor="middle" x="425.5" y="-266.9" font-family="Unifont" font-size="12.00">eeprom_read</text>
</a>
</g>
</g>
<!-- Node2&#45;&gt;Node3 -->
<g id="edge2" class="edge">
<title>Node2&#45;&gt;Node3</title>
<path fill="none" stroke="midnightblue" d="M184.28,-288.15C233.24,-284.45 318.77,-277.99 373.46,-273.86"/>
<polygon fill="midnightblue" stroke="midnightblue" points="373.93,-277.33 383.64,-273.09 373.4,-270.35 373.93,-277.33"/>
</g>
<!-- Node4 -->
<g id="node4" class="node">
<title>Node4</title>
<g id="a_node4"><a xlink:title=" ">
<polygon fill="none" stroke="black" points="244,-318.5 244,-339.5 345,-339.5 345,-318.5 244,-318.5"/>
<text text-anchor="middle" x="294.5" y="-325.9" font-family="Unifont" font-size="12.00">register_alarm</text>
</a>
</g>
</g>
<!-- Node2&#45;&gt;Node4 -->
<g id="edge3" class="edge">
<title>Node2&#45;&gt;Node4</title>
<path fill="none" stroke="midnightblue" d="M184.36,-300.79C202.18,-305.39 223.69,-310.95 242.88,-315.92"/>
<polygon fill="midnightblue" stroke="midnightblue" points="242.12,-319.33 252.68,-318.45 243.87,-312.56 242.12,-319.33"/>
</g>
<!-- Node5 -->
<g id="node5" class="node">
<title>Node5</title>
<g id="a_node5"><a xlink:title=" ">
<polygon fill="none" stroke="black" points="381,-318.5 381,-339.5 470,-339.5 470,-318.5 381,-318.5"/>
<text text-anchor="middle" x="425.5" y="-325.9" font-family="Unifont" font-size="12.00">eeprom_write</text>
</a>
</g>
</g>
<!-- Node4&#45;&gt;Node5 -->
<g id="edge4" class="edge">
<title>Node4&#45;&gt;Node5</title>
<path fill="none" stroke="midnightblue" d="M345.01,-329C353.39,-329 362.13,-329 370.62,-329"/>
<polygon fill="midnightblue" stroke="midnightblue" points="370.82,-332.5 380.82,-329 370.82,-325.5 370.82,-332.5"/>
</g>
<!-- Node7 -->
<g id="node7" class="node">
<title>Node7</title>
<g id="a_node7"><a xlink:title=" ">
<polygon fill="none" stroke="black" points="247,-240.5 247,-261.5 342,-261.5 342,-240.5 247,-240.5"/>
<text text-anchor="middle" x="294.5" y="-247.9" font-family="Unifont" font-size="12.00">eeprom2buffer</text>
</a>
</g>
</g>
<!-- Node6&#45;&gt;Node7 -->
<g id="edge6" class="edge">
<title>Node6&#45;&gt;Node7</title>
<path fill="none" stroke="midnightblue" d="M190.21,-251C204.72,-251 221.09,-251 236.45,-251"/>
<polygon fill="midnightblue" stroke="midnightblue" points="236.89,-254.5 246.89,-251 236.89,-247.5 236.89,-254.5"/>
</g>
<!-- Node7&#45;&gt;Node3 -->
<g id="edge7" class="edge">
<title>Node7&#45;&gt;Node3</title>
<path fill="none" stroke="midnightblue" d="M342.07,-257.86C352.46,-259.39 363.53,-261.02 374.07,-262.57"/>
<polygon fill="midnightblue" stroke="midnightblue" points="373.57,-266.04 383.97,-264.03 374.59,-259.11 373.57,-266.04"/>
</g>
<!-- Node9 -->
<g id="node9" class="node">
<title>Node9</title>
<g id="a_node9"><a xlink:title=" ">
<polygon fill="none" stroke="black" points="247,-200.5 247,-221.5 342,-221.5 342,-200.5 247,-200.5"/>
<text text-anchor="middle" x="294.5" y="-207.9" font-family="Unifont" font-size="12.00">trigger_alarm</text>
</a>
</g>
</g>
<!-- Node8&#45;&gt;Node9 -->
<g id="edge9" class="edge">
<title>Node8&#45;&gt;Node9</title>
<path fill="none" stroke="midnightblue" d="M202.07,-211C213.4,-211 225.34,-211 236.71,-211"/>
<polygon fill="midnightblue" stroke="midnightblue" points="236.96,-214.5 246.96,-211 236.96,-207.5 236.96,-214.5"/>
</g>
<!-- Node11 -->
<g id="node11" class="node">
<title>Node11</title>
<g id="a_node11"><a xlink:title=" ">
<polygon fill="none" stroke="black" points="250,-160.5 250,-181.5 339,-181.5 339,-160.5 250,-160.5"/>
<text text-anchor="middle" x="294.5" y="-167.9" font-family="Unifont" font-size="12.00">getCharacter</text>
</a>
</g>
</g>
<!-- Node10&#45;&gt;Node11 -->
<g id="edge11" class="edge">
<title>Node10&#45;&gt;Node11</title>
<path fill="none" stroke="midnightblue" d="M184.36,-171C201.15,-171 221.21,-171 239.53,-171"/>
<polygon fill="midnightblue" stroke="midnightblue" points="239.78,-174.5 249.78,-171 239.78,-167.5 239.78,-174.5"/>
</g>
<!-- Node13 -->
<g id="node13" class="node">
<title>Node13</title>
<g id="a_node13"><a xlink:title=" ">
<polygon fill="none" stroke="black" points="244,-120.5 244,-141.5 345,-141.5 345,-120.5 244,-120.5"/>
<text text-anchor="middle" x="294.5" y="-127.9" font-family="Unifont" font-size="12.00">uniformHistory</text>
</a>
</g>
</g>
<!-- Node10&#45;&gt;Node13 -->
<g id="edge13" class="edge">
<title>Node10&#45;&gt;Node13</title>
<path fill="none" stroke="midnightblue" d="M184.36,-160.7C202.84,-155.67 225.29,-149.56 245.02,-144.19"/>
<polygon fill="midnightblue" stroke="midnightblue" points="246.02,-147.55 254.75,-141.54 244.18,-140.79 246.02,-147.55"/>
</g>
<!-- Node12 -->
<g id="node12" class="node">
<title>Node12</title>
<g id="a_node12"><a xlink:title=" ">
<polygon fill="none" stroke="black" points="390,-160.5 390,-181.5 461,-181.5 461,-160.5 390,-160.5"/>
<text text-anchor="middle" x="425.5" y="-167.9" font-family="Unifont" font-size="12.00">readLines</text>
</a>
</g>
</g>
<!-- Node11&#45;&gt;Node12 -->
<g id="edge12" class="edge">
<title>Node11&#45;&gt;Node12</title>
<path fill="none" stroke="midnightblue" d="M339.17,-171C352.21,-171 366.51,-171 379.62,-171"/>
<polygon fill="midnightblue" stroke="midnightblue" points="379.83,-174.5 389.83,-171 379.83,-167.5 379.83,-174.5"/>
</g>
</g>
</svg>
