<?xml version="1.0" encoding="UTF-8" standalone="no"?>
<!DOCTYPE svg PUBLIC "-//W3C//DTD SVG 1.1//EN"
 "http://www.w3.org/Graphics/SVG/1.1/DTD/svg11.dtd">
<!-- Generated by graphviz version 2.43.0 (0)
 -->
<!-- Title: loop Pages: 1 -->
<svg width="859pt" height="651pt"
 viewBox="0.00 0.00 859.00 651.16" xmlns="http://www.w3.org/2000/svg" xmlns:xlink="http://www.w3.org/1999/xlink">
<g id="graph0" class="graph" transform="scale(1 1) rotate(0) translate(4 647.16)">
<title>loop</title>
<!-- Node1 -->
<g id="node1" class="node">
<title>Node1</title>
<g id="a_node1"><a xlink:title=" ">
<polygon fill="#bfbfbf" stroke="black" points="0,-355.5 0,-376.5 41,-376.5 41,-355.5 0,-355.5"/>
<text text-anchor="middle" x="20.5" y="-362.9" font-family="Unifont" font-size="12.00">loop</text>
</a>
</g>
</g>
<!-- Node2 -->
<g id="node2" class="node">
<title>Node2</title>
<g id="a_node2"><a xlink:title=" ">
<polygon fill="none" stroke="black" points="229,-553.5 229,-574.5 294,-574.5 294,-553.5 229,-553.5"/>
<text text-anchor="middle" x="261.5" y="-560.9" font-family="Unifont" font-size="12.00">armAlarm</text>
</a>
</g>
</g>
<!-- Node1&#45;&gt;Node2 -->
<g id="edge1" class="edge">
<title>Node1&#45;&gt;Node2</title>
<path fill="none" stroke="midnightblue" d="M21.35,-376.55C21.54,-407.01 26.59,-495.57 77,-538 116.29,-571.07 177.91,-573.01 218.75,-569.78"/>
<polygon fill="midnightblue" stroke="midnightblue" points="219.28,-573.25 228.92,-568.84 218.64,-566.28 219.28,-573.25"/>
</g>
<!-- Node5 -->
<g id="node5" class="node">
<title>Node5</title>
<g id="a_node5"><a xlink:title=" ">
<polygon fill="none" stroke="black" points="77,-278.5 77,-299.5 178,-299.5 178,-278.5 77,-278.5"/>
<text text-anchor="middle" x="127.5" y="-285.9" font-family="Unifont" font-size="12.00">changePassword</text>
</a>
</g>
</g>
<!-- Node1&#45;&gt;Node5 -->
<g id="edge4" class="edge">
<title>Node1&#45;&gt;Node5</title>
<path fill="none" stroke="midnightblue" d="M36.1,-355.29C53.65,-342.42 83.31,-320.67 103.84,-305.61"/>
<polygon fill="midnightblue" stroke="midnightblue" points="106.03,-308.35 112.02,-299.62 101.89,-302.71 106.03,-308.35"/>
</g>
<!-- Node9 -->
<g id="node9" class="node">
<title>Node9</title>
<g id="a_node9"><a xlink:title=" ">
<polygon fill="none" stroke="black" points="226,-199.5 226,-220.5 297,-220.5 297,-199.5 226,-199.5"/>
<text text-anchor="middle" x="261.5" y="-206.9" font-family="Unifont" font-size="12.00">procLogin</text>
</a>
</g>
</g>
<!-- Node1&#45;&gt;Node9 -->
<g id="edge37" class="edge">
<title>Node1&#45;&gt;Node9</title>
<path fill="none" stroke="midnightblue" d="M24.75,-355.24C31.31,-335.29 48.06,-292.46 77,-269 117.18,-236.44 175.72,-221.69 215.81,-215.11"/>
<polygon fill="midnightblue" stroke="midnightblue" points="216.49,-218.55 225.84,-213.57 215.43,-211.63 216.49,-218.55"/>
</g>
<!-- Node12 -->
<g id="node12" class="node">
<title>Node12</title>
<g id="a_node12"><a xlink:title=" ">
<polygon fill="none" stroke="black" points="375,-0.5 375,-21.5 440,-21.5 440,-0.5 375,-0.5"/>
<text text-anchor="middle" x="407.5" y="-7.9" font-family="Unifont" font-size="12.00">resetBuf</text>
</a>
</g>
</g>
<!-- Node1&#45;&gt;Node12 -->
<g id="edge51" class="edge">
<title>Node1&#45;&gt;Node12</title>
<path fill="none" stroke="midnightblue" d="M22.63,-355.49C27.29,-313.96 46.22,-161.72 77,-126 151.3,-39.78 293.99,-18.17 364.68,-12.78"/>
<polygon fill="midnightblue" stroke="midnightblue" points="365.25,-16.25 374.98,-12.07 364.77,-9.27 365.25,-16.25"/>
</g>
<!-- Node16 -->
<g id="node16" class="node">
<title>Node16</title>
<g id="a_node16"><a xlink:title=" ">
<polygon fill="none" stroke="black" points="214,-355.5 214,-376.5 309,-376.5 309,-355.5 214,-355.5"/>
<text text-anchor="middle" x="261.5" y="-362.9" font-family="Unifont" font-size="12.00">storePassword</text>
</a>
</g>
</g>
<!-- Node1&#45;&gt;Node16 -->
<g id="edge52" class="edge">
<title>Node1&#45;&gt;Node16</title>
<path fill="none" stroke="midnightblue" d="M41.06,-366C76.18,-366 151.14,-366 203.64,-366"/>
<polygon fill="midnightblue" stroke="midnightblue" points="203.82,-369.5 213.82,-366 203.82,-362.5 203.82,-369.5"/>
</g>
<!-- Node20 -->
<g id="node20" class="node">
<title>Node20</title>
<g id="a_node20"><a xlink:title=" ">
<polygon fill="none" stroke="black" points="217,-473.5 217,-494.5 306,-494.5 306,-473.5 217,-473.5"/>
<text text-anchor="middle" x="261.5" y="-480.9" font-family="Unifont" font-size="12.00">disableAlarm</text>
</a>
</g>
</g>
<!-- Node1&#45;&gt;Node20 -->
<g id="edge31" class="edge">
<title>Node1&#45;&gt;Node20</title>
<path fill="none" stroke="midnightblue" d="M31.68,-376.78C42.2,-387.41 59.5,-403.54 77,-414 119.72,-439.53 173.37,-458.71 211.61,-470.47"/>
<polygon fill="midnightblue" stroke="midnightblue" points="210.89,-473.91 221.47,-473.45 212.91,-467.21 210.89,-473.91"/>
</g>
<!-- Node21 -->
<g id="node21" class="node">
<title>Node21</title>
<g id="a_node21"><a xlink:title=" ">
<polygon fill="none" stroke="black" points="220,-433.5 220,-454.5 303,-454.5 303,-433.5 220,-433.5"/>
<text text-anchor="middle" x="261.5" y="-440.9" font-family="Unifont" font-size="12.00">disarmAlarm</text>
</a>
</g>
</g>
<!-- Node1&#45;&gt;Node21 -->
<g id="edge34" class="edge">
<title>Node1&#45;&gt;Node21</title>
<path fill="none" stroke="midnightblue" d="M41.06,-372.38C79.6,-384.96 166.14,-413.21 218.29,-430.23"/>
<polygon fill="midnightblue" stroke="midnightblue" points="217.33,-433.59 227.93,-433.37 219.5,-426.94 217.33,-433.59"/>
</g>
<!-- Node22 -->
<g id="node22" class="node">
<title>Node22</title>
<g id="a_node22"><a xlink:title=" ">
<polygon fill="none" stroke="black" points="229,-81.5 229,-102.5 294,-102.5 294,-81.5 229,-81.5"/>
<text text-anchor="middle" x="261.5" y="-88.9" font-family="Unifont" font-size="12.00">procMenu</text>
</a>
</g>
</g>
<!-- Node1&#45;&gt;Node22 -->
<g id="edge38" class="edge">
<title>Node1&#45;&gt;Node22</title>
<path fill="none" stroke="midnightblue" d="M23.58,-355.17C28.89,-329.62 44.88,-264.37 77,-220 122.95,-156.52 145.83,-147.65 214,-109 215.74,-108.01 217.54,-107.07 219.39,-106.16"/>
<polygon fill="midnightblue" stroke="midnightblue" points="221.13,-109.22 228.85,-101.96 218.29,-102.82 221.13,-109.22"/>
</g>
<!-- Node26 -->
<g id="node26" class="node">
<title>Node26</title>
<g id="a_node26"><a xlink:title=" ">
<polygon fill="none" stroke="black" points="89,-507.5 89,-528.5 166,-528.5 166,-507.5 89,-507.5"/>
<text text-anchor="middle" x="127.5" y="-514.9" font-family="Unifont" font-size="12.00">procReboot</text>
</a>
</g>
</g>
<!-- Node1&#45;&gt;Node26 -->
<g id="edge44" class="edge">
<title>Node1&#45;&gt;Node26</title>
<path fill="none" stroke="midnightblue" d="M24.11,-376.52C30.12,-399.04 46.8,-452.62 77,-487 82.06,-492.76 88.45,-497.82 94.94,-502.1"/>
<polygon fill="midnightblue" stroke="midnightblue" points="93.38,-505.24 103.75,-507.43 97.01,-499.26 93.38,-505.24"/>
</g>
<!-- Node3 -->
<g id="node3" class="node">
<title>Node3</title>
<g id="a_node3"><a xlink:title=" ">
<polygon fill="none" stroke="black" points="762,-533.5 762,-554.5 851,-554.5 851,-533.5 762,-533.5"/>
<text text-anchor="middle" x="806.5" y="-540.9" font-family="Unifont" font-size="12.00">eeprom_write</text>
</a>
</g>
</g>
<!-- Node2&#45;&gt;Node3 -->
<g id="edge2" class="edge">
<title>Node2&#45;&gt;Node3</title>
<path fill="none" stroke="midnightblue" d="M272.99,-574.91C287.56,-589.2 315.49,-613.53 345,-623 450.8,-656.94 485.41,-641.3 595,-623 662.58,-611.72 736.45,-578.77 776.21,-559.17"/>
<polygon fill="midnightblue" stroke="midnightblue" points="777.95,-562.21 785.33,-554.61 774.82,-555.95 777.95,-562.21"/>
</g>
<!-- Node4 -->
<g id="node4" class="node">
<title>Node4</title>
<g id="a_node4"><a xlink:title=" ">
<polygon fill="none" stroke="black" points="369,-436.5 369,-457.5 446,-457.5 446,-436.5 369,-436.5"/>
<text text-anchor="middle" x="407.5" y="-443.9" font-family="Unifont" font-size="12.00">lcdSuccess</text>
</a>
</g>
</g>
<!-- Node2&#45;&gt;Node4 -->
<g id="edge3" class="edge">
<title>Node2&#45;&gt;Node4</title>
<path fill="none" stroke="midnightblue" d="M292.52,-553.3C298.23,-550.66 303.98,-547.55 309,-544 328.26,-530.38 328.41,-521.77 345,-505 358.72,-491.14 374.77,-476.04 387.03,-464.72"/>
<polygon fill="midnightblue" stroke="midnightblue" points="389.48,-467.22 394.48,-457.88 384.74,-462.07 389.48,-467.22"/>
</g>
<!-- Node5&#45;&gt;Node4 -->
<g id="edge7" class="edge">
<title>Node5&#45;&gt;Node4</title>
<path fill="none" stroke="midnightblue" d="M135.09,-299.74C147.85,-319.67 177.89,-362.47 214,-386 238.04,-401.67 310.07,-422.25 358.87,-435.04"/>
<polygon fill="midnightblue" stroke="midnightblue" points="358.04,-438.45 368.6,-437.57 359.8,-431.67 358.04,-438.45"/>
</g>
<!-- Node6 -->
<g id="node6" class="node">
<title>Node6</title>
<g id="a_node6"><a xlink:title=" ">
<polygon fill="none" stroke="black" points="381,-80.5 381,-101.5 434,-101.5 434,-80.5 381,-80.5"/>
<text text-anchor="middle" x="407.5" y="-87.9" font-family="Unifont" font-size="12.00">getKey</text>
</a>
</g>
</g>
<!-- Node5&#45;&gt;Node6 -->
<g id="edge5" class="edge">
<title>Node5&#45;&gt;Node6</title>
<path fill="none" stroke="midnightblue" d="M131.89,-278.24C140.81,-251.72 167.48,-182.81 214,-147 238.59,-128.07 322.32,-108.34 370.87,-98.11"/>
<polygon fill="midnightblue" stroke="midnightblue" points="371.59,-101.54 380.67,-96.08 370.16,-94.68 371.59,-101.54"/>
</g>
<!-- Node7 -->
<g id="node7" class="node">
<title>Node7</title>
<g id="a_node7"><a xlink:title=" ">
<polygon fill="none" stroke="black" points="366,-120.5 366,-141.5 449,-141.5 449,-120.5 366,-120.5"/>
<text text-anchor="middle" x="407.5" y="-127.9" font-family="Unifont" font-size="12.00">keyDebounce</text>
</a>
</g>
</g>
<!-- Node5&#45;&gt;Node7 -->
<g id="edge6" class="edge">
<title>Node5&#45;&gt;Node7</title>
<path fill="none" stroke="midnightblue" d="M134.82,-278.31C147.33,-258.05 177.29,-213.94 214,-190 257.32,-161.75 314.87,-146.44 355.73,-138.56"/>
<polygon fill="midnightblue" stroke="midnightblue" points="356.54,-141.97 365.74,-136.71 355.27,-135.08 356.54,-141.97"/>
</g>
<!-- Node8 -->
<g id="node8" class="node">
<title>Node8</title>
<g id="a_node8"><a xlink:title=" ">
<polygon fill="none" stroke="black" points="375,-238.5 375,-259.5 440,-259.5 440,-238.5 375,-238.5"/>
<text text-anchor="middle" x="407.5" y="-245.9" font-family="Unifont" font-size="12.00">pointBuf</text>
</a>
</g>
</g>
<!-- Node5&#45;&gt;Node8 -->
<g id="edge8" class="edge">
<title>Node5&#45;&gt;Node8</title>
<path fill="none" stroke="midnightblue" d="M178.1,-285.22C214.47,-282.1 264.97,-277.04 309,-270 327.44,-267.05 347.64,-262.86 364.85,-259"/>
<polygon fill="midnightblue" stroke="midnightblue" points="365.64,-262.41 374.61,-256.77 364.08,-255.59 365.64,-262.41"/>
</g>
<!-- Node5&#45;&gt;Node9 -->
<g id="edge9" class="edge">
<title>Node5&#45;&gt;Node9</title>
<path fill="none" stroke="midnightblue" d="M142.17,-278.3C158.61,-265.74 187.33,-244.75 214,-230 217.27,-228.19 220.73,-226.43 224.24,-224.76"/>
<polygon fill="midnightblue" stroke="midnightblue" points="225.86,-227.87 233.51,-220.54 222.96,-221.5 225.86,-227.87"/>
</g>
<!-- Node13 -->
<g id="node13" class="node">
<title>Node13</title>
<g id="a_node13"><a xlink:title=" ">
<polygon fill="none" stroke="black" points="381,-318.5 381,-339.5 434,-339.5 434,-318.5 381,-318.5"/>
<text text-anchor="middle" x="407.5" y="-325.9" font-family="Unifont" font-size="12.00">setBuf</text>
</a>
</g>
</g>
<!-- Node5&#45;&gt;Node13 -->
<g id="edge19" class="edge">
<title>Node5&#45;&gt;Node13</title>
<path fill="none" stroke="midnightblue" d="M178.2,-296.15C233.64,-304.13 321.93,-316.83 370.89,-323.88"/>
<polygon fill="midnightblue" stroke="midnightblue" points="370.6,-327.37 381,-325.33 371.6,-320.44 370.6,-327.37"/>
</g>
<!-- Node15 -->
<g id="node15" class="node">
<title>Node15</title>
<g id="a_node15"><a xlink:title=" ">
<polygon fill="none" stroke="black" points="220,-239.5 220,-260.5 303,-260.5 303,-239.5 220,-239.5"/>
<text text-anchor="middle" x="261.5" y="-246.9" font-family="Unifont" font-size="12.00">setPassword</text>
</a>
</g>
</g>
<!-- Node5&#45;&gt;Node15 -->
<g id="edge20" class="edge">
<title>Node5&#45;&gt;Node15</title>
<path fill="none" stroke="midnightblue" d="M164.22,-278.45C179.78,-273.85 198.19,-268.41 214.74,-263.52"/>
<polygon fill="midnightblue" stroke="midnightblue" points="216.15,-266.75 224.75,-260.56 214.17,-260.04 216.15,-266.75"/>
</g>
<!-- Node5&#45;&gt;Node16 -->
<g id="edge21" class="edge">
<title>Node5&#45;&gt;Node16</title>
<path fill="none" stroke="midnightblue" d="M145.37,-299.63C162.51,-310.33 189.87,-327.19 214,-341 219.4,-344.09 225.21,-347.3 230.83,-350.35"/>
<polygon fill="midnightblue" stroke="midnightblue" points="229.53,-353.63 240,-355.28 232.85,-347.46 229.53,-353.63"/>
</g>
<!-- Node9&#45;&gt;Node4 -->
<g id="edge14" class="edge">
<title>Node9&#45;&gt;Node4</title>
<path fill="none" stroke="midnightblue" d="M297.07,-220.35C301.57,-222.91 305.74,-226.08 309,-230 355.32,-285.71 309.08,-326.07 345,-389 354.31,-405.31 369.68,-419.81 382.72,-430.23"/>
<polygon fill="midnightblue" stroke="midnightblue" points="380.81,-433.17 390.87,-436.47 385.06,-427.61 380.81,-433.17"/>
</g>
<!-- Node9&#45;&gt;Node6 -->
<g id="edge10" class="edge">
<title>Node9&#45;&gt;Node6</title>
<path fill="none" stroke="midnightblue" d="M270.21,-199.32C286.94,-176.38 326.57,-123.48 345,-111 352.77,-105.74 362.02,-101.78 370.95,-98.84"/>
<polygon fill="midnightblue" stroke="midnightblue" points="372.21,-102.12 380.81,-95.93 370.23,-95.4 372.21,-102.12"/>
</g>
<!-- Node9&#45;&gt;Node7 -->
<g id="edge12" class="edge">
<title>Node9&#45;&gt;Node7</title>
<path fill="none" stroke="midnightblue" d="M284.98,-199.44C292.85,-195.35 301.57,-190.36 309,-185 326.85,-172.12 326.07,-162.23 345,-151 348.58,-148.87 352.42,-146.94 356.37,-145.19"/>
<polygon fill="midnightblue" stroke="midnightblue" points="357.71,-148.43 365.69,-141.45 355.1,-141.93 357.71,-148.43"/>
</g>
<!-- Node9&#45;&gt;Node8 -->
<g id="edge15" class="edge">
<title>Node9&#45;&gt;Node8</title>
<path fill="none" stroke="midnightblue" d="M297.36,-219.44C317.77,-224.97 343.65,-231.98 365.1,-237.79"/>
<polygon fill="midnightblue" stroke="midnightblue" points="364.34,-241.21 374.91,-240.44 366.17,-234.45 364.34,-241.21"/>
</g>
<!-- Node10 -->
<g id="node10" class="node">
<title>Node10</title>
<g id="a_node10"><a xlink:title=" ">
<polygon fill="none" stroke="black" points="509,-318.5 509,-339.5 592,-339.5 592,-318.5 509,-318.5"/>
<text text-anchor="middle" x="550.5" y="-325.9" font-family="Unifont" font-size="12.00">getPassword</text>
</a>
</g>
</g>
<!-- Node9&#45;&gt;Node10 -->
<g id="edge11" class="edge">
<title>Node9&#45;&gt;Node10</title>
<path fill="none" stroke="midnightblue" d="M297.18,-205.24C340.4,-201.02 415.25,-199.43 470,-229 503.47,-247.08 527.77,-285.81 540.17,-309.42"/>
<polygon fill="midnightblue" stroke="midnightblue" points="537.12,-311.14 544.75,-318.5 543.38,-307.99 537.12,-311.14"/>
</g>
<!-- Node11 -->
<g id="node11" class="node">
<title>Node11</title>
<g id="a_node11"><a xlink:title=" ">
<polygon fill="none" stroke="black" points="378,-278.5 378,-299.5 437,-299.5 437,-278.5 378,-278.5"/>
<text text-anchor="middle" x="407.5" y="-285.9" font-family="Unifont" font-size="12.00">lcdFail</text>
</a>
</g>
</g>
<!-- Node9&#45;&gt;Node11 -->
<g id="edge13" class="edge">
<title>Node9&#45;&gt;Node11</title>
<path fill="none" stroke="midnightblue" d="M292.52,-220.7C298.23,-223.34 303.98,-226.45 309,-230 328.26,-243.62 325.14,-256.27 345,-269 352.06,-273.52 360.23,-277.11 368.26,-279.92"/>
<polygon fill="midnightblue" stroke="midnightblue" points="367.32,-283.29 377.91,-282.97 369.43,-276.62 367.32,-283.29"/>
</g>
<!-- Node9&#45;&gt;Node12 -->
<g id="edge16" class="edge">
<title>Node9&#45;&gt;Node12</title>
<path fill="none" stroke="midnightblue" d="M267.61,-199.45C276.26,-181.54 294.3,-144 309,-112 325.45,-76.2 315.74,-57.37 345,-31 350.68,-25.88 357.68,-22.07 364.91,-19.24"/>
<polygon fill="midnightblue" stroke="midnightblue" points="366.41,-22.43 374.8,-15.94 364.2,-15.79 366.41,-22.43"/>
</g>
<!-- Node9&#45;&gt;Node13 -->
<g id="edge17" class="edge">
<title>Node9&#45;&gt;Node13</title>
<path fill="none" stroke="midnightblue" d="M295.91,-220.73C300.68,-223.25 305.23,-226.31 309,-230 336.57,-256.99 316.22,-283.3 345,-309 352.26,-315.48 361.65,-319.86 370.9,-322.83"/>
<polygon fill="midnightblue" stroke="midnightblue" points="370.2,-326.27 380.77,-325.52 372.04,-319.51 370.2,-326.27"/>
</g>
<!-- Node14 -->
<g id="node14" class="node">
<title>Node14</title>
<g id="a_node14"><a xlink:title=" ">
<polygon fill="none" stroke="black" points="366,-160.5 366,-181.5 449,-181.5 449,-160.5 366,-160.5"/>
<text text-anchor="middle" x="407.5" y="-167.9" font-family="Unifont" font-size="12.00">tryPassword</text>
</a>
</g>
</g>
<!-- Node9&#45;&gt;Node14 -->
<g id="edge18" class="edge">
<title>Node9&#45;&gt;Node14</title>
<path fill="none" stroke="midnightblue" d="M297.36,-200.56C315.52,-195.64 338.01,-189.55 357.86,-184.17"/>
<polygon fill="midnightblue" stroke="midnightblue" points="358.92,-187.51 367.65,-181.52 357.09,-180.76 358.92,-187.51"/>
</g>
<!-- Node16&#45;&gt;Node4 -->
<g id="edge26" class="edge">
<title>Node16&#45;&gt;Node4</title>
<path fill="none" stroke="midnightblue" d="M284.37,-376.51C292.35,-380.66 301.3,-385.7 309,-391 326.4,-402.96 326.98,-410.99 345,-422 351.36,-425.88 358.42,-429.4 365.43,-432.49"/>
<polygon fill="midnightblue" stroke="midnightblue" points="364.32,-435.81 374.89,-436.42 367.01,-429.35 364.32,-435.81"/>
</g>
<!-- Node16&#45;&gt;Node6 -->
<g id="edge23" class="edge">
<title>Node16&#45;&gt;Node6</title>
<path fill="none" stroke="midnightblue" d="M268.63,-355.4C278.43,-338.07 297.68,-302.33 309,-270 332.95,-201.62 296.17,-164.53 345,-111 351.8,-103.55 361.39,-98.87 370.99,-95.92"/>
<polygon fill="midnightblue" stroke="midnightblue" points="372.02,-99.27 380.87,-93.45 370.32,-92.48 372.02,-99.27"/>
</g>
<!-- Node16&#45;&gt;Node7 -->
<g id="edge24" class="edge">
<title>Node16&#45;&gt;Node7</title>
<path fill="none" stroke="midnightblue" d="M268.37,-355.31C277.8,-337.84 296.53,-301.91 309,-270 329.11,-218.53 306.33,-190.47 345,-151 348.41,-147.52 352.42,-144.65 356.74,-142.28"/>
<polygon fill="midnightblue" stroke="midnightblue" points="358.3,-145.41 365.94,-138.07 355.39,-139.05 358.3,-145.41"/>
</g>
<!-- Node16&#45;&gt;Node11 -->
<g id="edge25" class="edge">
<title>Node16&#45;&gt;Node11</title>
<path fill="none" stroke="midnightblue" d="M275.2,-355.47C290.8,-342.95 318.47,-322.13 345,-309 352.29,-305.39 360.37,-302.23 368.22,-299.54"/>
<polygon fill="midnightblue" stroke="midnightblue" points="369.52,-302.8 377.96,-296.4 367.37,-296.14 369.52,-302.8"/>
</g>
<!-- Node16&#45;&gt;Node13 -->
<g id="edge30" class="edge">
<title>Node16&#45;&gt;Node13</title>
<path fill="none" stroke="midnightblue" d="M303.38,-355.5C324.72,-350.01 350.57,-343.37 371.06,-338.11"/>
<polygon fill="midnightblue" stroke="midnightblue" points="372.12,-341.45 380.93,-335.57 370.38,-334.67 372.12,-341.45"/>
</g>
<!-- Node17 -->
<g id="node17" class="node">
<title>Node17</title>
<g id="a_node17"><a xlink:title=" ">
<polygon fill="none" stroke="black" points="381,-358.5 381,-379.5 434,-379.5 434,-358.5 381,-358.5"/>
<text text-anchor="middle" x="407.5" y="-365.9" font-family="Unifont" font-size="12.00">getBuf</text>
</a>
</g>
</g>
<!-- Node16&#45;&gt;Node17 -->
<g id="edge22" class="edge">
<title>Node16&#45;&gt;Node17</title>
<path fill="none" stroke="midnightblue" d="M309.25,-366.97C329.25,-367.39 352.23,-367.87 370.83,-368.26"/>
<polygon fill="midnightblue" stroke="midnightblue" points="370.87,-371.76 380.94,-368.47 371.01,-364.76 370.87,-371.76"/>
</g>
<!-- Node18 -->
<g id="node18" class="node">
<title>Node18</title>
<g id="a_node18"><a xlink:title=" ">
<polygon fill="none" stroke="black" points="506,-514.5 506,-535.5 595,-535.5 595,-514.5 506,-514.5"/>
<text text-anchor="middle" x="550.5" y="-521.9" font-family="Unifont" font-size="12.00">savePassword</text>
</a>
</g>
</g>
<!-- Node16&#45;&gt;Node18 -->
<g id="edge27" class="edge">
<title>Node16&#45;&gt;Node18</title>
<path fill="none" stroke="midnightblue" d="M300.8,-376.63C358.76,-392.79 462.81,-422.21 470,-427 500.65,-447.42 525.33,-483.28 538.66,-505.5"/>
<polygon fill="midnightblue" stroke="midnightblue" points="535.77,-507.49 543.82,-514.37 541.82,-503.97 535.77,-507.49"/>
</g>
<!-- Node19 -->
<g id="node19" class="node">
<title>Node19</title>
<g id="a_node19"><a xlink:title=" ">
<polygon fill="none" stroke="black" points="631,-514.5 631,-535.5 726,-535.5 726,-514.5 631,-514.5"/>
<text text-anchor="middle" x="678.5" y="-521.9" font-family="Unifont" font-size="12.00">buffer2eeprom</text>
</a>
</g>
</g>
<!-- Node18&#45;&gt;Node19 -->
<g id="edge28" class="edge">
<title>Node18&#45;&gt;Node19</title>
<path fill="none" stroke="midnightblue" d="M595.22,-525C603.4,-525 612.07,-525 620.59,-525"/>
<polygon fill="midnightblue" stroke="midnightblue" points="620.86,-528.5 630.86,-525 620.86,-521.5 620.86,-528.5"/>
</g>
<!-- Node19&#45;&gt;Node3 -->
<g id="edge29" class="edge">
<title>Node19&#45;&gt;Node3</title>
<path fill="none" stroke="midnightblue" d="M726.06,-532.02C734.42,-533.28 743.2,-534.61 751.75,-535.9"/>
<polygon fill="midnightblue" stroke="midnightblue" points="751.23,-539.36 761.64,-537.39 752.27,-532.43 751.23,-539.36"/>
</g>
<!-- Node20&#45;&gt;Node3 -->
<g id="edge32" class="edge">
<title>Node20&#45;&gt;Node3</title>
<path fill="none" stroke="midnightblue" d="M292.59,-494.61C298.29,-497.25 304.02,-500.38 309,-504 328.62,-518.25 322.91,-535 345,-545 482.84,-607.4 668.56,-576.99 756.02,-556.89"/>
<polygon fill="midnightblue" stroke="midnightblue" points="757.01,-560.26 765.94,-554.56 755.41,-553.44 757.01,-560.26"/>
</g>
<!-- Node20&#45;&gt;Node4 -->
<g id="edge33" class="edge">
<title>Node20&#45;&gt;Node4</title>
<path fill="none" stroke="midnightblue" d="M303.38,-473.5C320.78,-469.03 341.18,-463.78 359.22,-459.15"/>
<polygon fill="midnightblue" stroke="midnightblue" points="360.16,-462.52 368.97,-456.64 358.41,-455.74 360.16,-462.52"/>
</g>
<!-- Node21&#45;&gt;Node3 -->
<g id="edge35" class="edge">
<title>Node21&#45;&gt;Node3</title>
<path fill="none" stroke="midnightblue" d="M295.51,-454.61C310.48,-459.05 328.49,-463.9 345,-467 512.25,-498.41 562.35,-458.34 726,-505 744.85,-510.38 764.65,-520.07 779.78,-528.45"/>
<polygon fill="midnightblue" stroke="midnightblue" points="778.12,-531.54 788.54,-533.45 781.59,-525.46 778.12,-531.54"/>
</g>
<!-- Node21&#45;&gt;Node4 -->
<g id="edge36" class="edge">
<title>Node21&#45;&gt;Node4</title>
<path fill="none" stroke="midnightblue" d="M303.38,-444.85C320.7,-445.21 340.99,-445.64 358.97,-446.01"/>
<polygon fill="midnightblue" stroke="midnightblue" points="358.9,-449.51 368.97,-446.22 359.05,-442.51 358.9,-449.51"/>
</g>
<!-- Node22&#45;&gt;Node6 -->
<g id="edge42" class="edge">
<title>Node22&#45;&gt;Node6</title>
<path fill="none" stroke="midnightblue" d="M294.1,-91.78C316.65,-91.62 347,-91.41 370.48,-91.25"/>
<polygon fill="midnightblue" stroke="midnightblue" points="370.76,-94.75 380.74,-91.18 370.71,-87.75 370.76,-94.75"/>
</g>
<!-- Node22&#45;&gt;Node7 -->
<g id="edge43" class="edge">
<title>Node22&#45;&gt;Node7</title>
<path fill="none" stroke="midnightblue" d="M294.1,-100.56C312.76,-105.61 336.76,-112.11 357.79,-117.81"/>
<polygon fill="midnightblue" stroke="midnightblue" points="356.96,-121.21 367.53,-120.44 358.79,-114.45 356.96,-121.21"/>
</g>
<!-- Node23 -->
<g id="node23" class="node">
<title>Node23</title>
<g id="a_node23"><a xlink:title=" ">
<polygon fill="none" stroke="black" points="375,-40.5 375,-61.5 440,-61.5 440,-40.5 375,-40.5"/>
<text text-anchor="middle" x="407.5" y="-47.9" font-family="Unifont" font-size="12.00">drawMenu</text>
</a>
</g>
</g>
<!-- Node22&#45;&gt;Node23 -->
<g id="edge39" class="edge">
<title>Node22&#45;&gt;Node23</title>
<path fill="none" stroke="midnightblue" d="M294.1,-83C315.02,-77.05 342.65,-69.18 365.29,-62.73"/>
<polygon fill="midnightblue" stroke="midnightblue" points="366.31,-66.08 374.97,-59.98 364.4,-59.35 366.31,-66.08"/>
</g>
<!-- Node24 -->
<g id="node24" class="node">
<title>Node24</title>
<g id="a_node24"><a xlink:title=" ">
<polygon fill="none" stroke="black" points="518,-60.5 518,-81.5 583,-81.5 583,-60.5 518,-60.5"/>
<text text-anchor="middle" x="550.5" y="-67.9" font-family="Unifont" font-size="12.00">headMenu</text>
</a>
</g>
</g>
<!-- Node23&#45;&gt;Node24 -->
<g id="edge40" class="edge">
<title>Node23&#45;&gt;Node24</title>
<path fill="none" stroke="midnightblue" d="M440.14,-55.49C460.19,-58.33 486.33,-62.04 508.03,-65.12"/>
<polygon fill="midnightblue" stroke="midnightblue" points="507.57,-68.59 517.96,-66.53 508.55,-61.66 507.57,-68.59"/>
</g>
<!-- Node25 -->
<g id="node25" class="node">
<title>Node25</title>
<g id="a_node25"><a xlink:title=" ">
<polygon fill="none" stroke="black" points="518,-20.5 518,-41.5 583,-41.5 583,-20.5 518,-20.5"/>
<text text-anchor="middle" x="550.5" y="-27.9" font-family="Unifont" font-size="12.00">tailMenu</text>
</a>
</g>
</g>
<!-- Node23&#45;&gt;Node25 -->
<g id="edge41" class="edge">
<title>Node23&#45;&gt;Node25</title>
<path fill="none" stroke="midnightblue" d="M440.14,-46.51C460.19,-43.67 486.33,-39.96 508.03,-36.88"/>
<polygon fill="midnightblue" stroke="midnightblue" points="508.55,-40.34 517.96,-35.47 507.57,-33.41 508.55,-40.34"/>
</g>
<!-- Node27 -->
<g id="node27" class="node">
<title>Node27</title>
<g id="a_node27"><a xlink:title=" ">
<polygon fill="none" stroke="black" points="214,-513.5 214,-534.5 309,-534.5 309,-513.5 214,-513.5"/>
<text text-anchor="middle" x="261.5" y="-520.9" font-family="Unifont" font-size="12.00">system_reboot</text>
</a>
</g>
</g>
<!-- Node26&#45;&gt;Node27 -->
<g id="edge45" class="edge">
<title>Node26&#45;&gt;Node27</title>
<path fill="none" stroke="midnightblue" d="M166.33,-519.72C177.99,-520.25 191.09,-520.85 203.74,-521.42"/>
<polygon fill="midnightblue" stroke="midnightblue" points="203.6,-524.92 213.75,-521.87 203.91,-517.92 203.6,-524.92"/>
</g>
<!-- Node28 -->
<g id="node28" class="node">
<title>Node28</title>
<g id="a_node28"><a xlink:title=" ">
<polygon fill="none" stroke="black" points="345,-514.5 345,-535.5 470,-535.5 470,-514.5 345,-514.5"/>
<text text-anchor="middle" x="407.5" y="-521.9" font-family="Unifont" font-size="12.00">system_saveChanges</text>
</a>
</g>
</g>
<!-- Node27&#45;&gt;Node28 -->
<g id="edge46" class="edge">
<title>Node27&#45;&gt;Node28</title>
<path fill="none" stroke="midnightblue" d="M309.25,-524.32C317.4,-524.38 326.04,-524.44 334.67,-524.5"/>
<polygon fill="midnightblue" stroke="midnightblue" points="334.76,-528 344.78,-524.57 334.8,-521 334.76,-528"/>
</g>
<!-- Node29 -->
<g id="node29" class="node">
<title>Node29</title>
<g id="a_node29"><a xlink:title=" ">
<polygon fill="none" stroke="black" points="375,-592.5 375,-613.5 440,-613.5 440,-592.5 375,-592.5"/>
<text text-anchor="middle" x="407.5" y="-599.9" font-family="Unifont" font-size="12.00">wdt_init</text>
</a>
</g>
</g>
<!-- Node27&#45;&gt;Node29 -->
<g id="edge49" class="edge">
<title>Node27&#45;&gt;Node29</title>
<path fill="none" stroke="midnightblue" d="M291.35,-534.54C297.39,-537.25 303.57,-540.43 309,-544 327.39,-556.09 326.49,-566.1 345,-578 351.26,-582.03 358.29,-585.62 365.28,-588.73"/>
<polygon fill="midnightblue" stroke="midnightblue" points="364.16,-592.05 374.73,-592.68 366.85,-585.59 364.16,-592.05"/>
</g>
<!-- Node28&#45;&gt;Node10 -->
<g id="edge47" class="edge">
<title>Node28&#45;&gt;Node10</title>
<path fill="none" stroke="midnightblue" d="M421.82,-514.42C435.06,-503.48 455.44,-485.43 470,-467 500.53,-428.36 527.06,-376.68 540.38,-348.81"/>
<polygon fill="midnightblue" stroke="midnightblue" points="543.58,-350.23 544.67,-339.69 537.25,-347.25 543.58,-350.23"/>
</g>
<!-- Node28&#45;&gt;Node18 -->
<g id="edge48" class="edge">
<title>Node28&#45;&gt;Node18</title>
<path fill="none" stroke="midnightblue" d="M470.34,-525C478.77,-525 487.37,-525 495.64,-525"/>
<polygon fill="midnightblue" stroke="midnightblue" points="495.91,-528.5 505.91,-525 495.91,-521.5 495.91,-528.5"/>
</g>
<!-- Node30 -->
<g id="node30" class="node">
<title>Node30</title>
<g id="a_node30"><a xlink:title=" ">
<polygon fill="none" stroke="black" points="521,-592.5 521,-613.5 580,-613.5 580,-592.5 521,-592.5"/>
<text text-anchor="middle" x="550.5" y="-599.9" font-family="Unifont" font-size="12.00">wdt_ack</text>
</a>
</g>
</g>
<!-- Node29&#45;&gt;Node30 -->
<g id="edge50" class="edge">
<title>Node29&#45;&gt;Node30</title>
<path fill="none" stroke="midnightblue" d="M440.14,-603C461.03,-603 488.54,-603 510.74,-603"/>
<polygon fill="midnightblue" stroke="midnightblue" points="510.84,-606.5 520.84,-603 510.84,-599.5 510.84,-606.5"/>
</g>
</g>
</svg>
