<?xml version="1.0" encoding="UTF-8" standalone="no"?>
<!DOCTYPE svg PUBLIC "-//W3C//DTD SVG 1.1//EN"
 "http://www.w3.org/Graphics/SVG/1.1/DTD/svg11.dtd">
<!-- Generated by graphviz version 2.43.0 (0)
 -->
<!-- Title: nano_main_hub.ino Pages: 1 -->
<svg width="479pt" height="644pt"
 viewBox="0.00 0.00 479.00 644.00" xmlns="http://www.w3.org/2000/svg" xmlns:xlink="http://www.w3.org/1999/xlink">
<g id="graph0" class="graph" transform="scale(1 1) rotate(0) translate(4 640)">
<title>nano_main_hub.ino</title>
<!-- Node1 -->
<g id="node1" class="node">
<title>Node1</title>
<g id="a_node1"><a xlink:title=" ">
<polygon fill="#bfbfbf" stroke="black" points="0,-300.5 0,-321.5 119,-321.5 119,-300.5 0,-300.5"/>
<text text-anchor="middle" x="59.5" y="-307.9" font-family="Unifont" font-size="12.00">nano_main_hub.ino</text>
</a>
</g>
</g>
<!-- Node2 -->
<g id="node2" class="node">
<title>Node2</title>
<g id="a_node2"><a xlink:title=" ">
<polygon fill="none" stroke="#bfbfbf" points="191,-614.5 191,-635.5 262,-635.5 262,-614.5 191,-614.5"/>
<text text-anchor="middle" x="226.5" y="-621.9" font-family="Unifont" font-size="12.00">Arduino.h</text>
</a>
</g>
</g>
<!-- Node1&#45;&gt;Node2 -->
<g id="edge1" class="edge">
<title>Node1&#45;&gt;Node2</title>
<path fill="none" stroke="midnightblue" d="M60.54,-321.65C61.31,-364.11 69.97,-522.86 155,-605 162.13,-611.89 171.45,-616.44 180.97,-619.43"/>
<polygon fill="midnightblue" stroke="midnightblue" points="180.32,-622.88 190.88,-622.02 182.09,-616.11 180.32,-622.88"/>
</g>
<!-- Node3 -->
<g id="node3" class="node">
<title>Node3</title>
<g id="a_node3"><a xlink:title=" ">
<polygon fill="none" stroke="black" points="155,-574.5 155,-595.5 298,-595.5 298,-574.5 155,-574.5"/>
<text text-anchor="middle" x="226.5" y="-581.9" font-family="Unifont" font-size="12.00">src/I2C_LCD/I2C_LCD.h</text>
</a>
</g>
</g>
<!-- Node1&#45;&gt;Node3 -->
<g id="edge2" class="edge">
<title>Node1&#45;&gt;Node3</title>
<path fill="none" stroke="midnightblue" d="M61.15,-321.53C64.1,-360.15 79.64,-495.42 155,-565 156.67,-566.54 158.45,-567.97 160.32,-569.28"/>
<polygon fill="midnightblue" stroke="midnightblue" points="158.6,-572.33 168.99,-574.38 162.15,-566.3 158.6,-572.33"/>
</g>
<!-- Node5 -->
<g id="node5" class="node">
<title>Node5</title>
<g id="a_node5"><a xlink:title=" ">
<polygon fill="none" stroke="black" points="167,-534.5 167,-555.5 286,-555.5 286,-534.5 167,-534.5"/>
<text text-anchor="middle" x="226.5" y="-541.9" font-family="Unifont" font-size="12.00">src/timer/timer.h</text>
</a>
</g>
</g>
<!-- Node1&#45;&gt;Node5 -->
<g id="edge4" class="edge">
<title>Node1&#45;&gt;Node5</title>
<path fill="none" stroke="midnightblue" d="M62,-321.79C67.44,-356.75 89.41,-467.97 155,-525 156.93,-526.68 159,-528.22 161.16,-529.63"/>
<polygon fill="midnightblue" stroke="midnightblue" points="159.48,-532.7 169.93,-534.46 162.85,-526.57 159.48,-532.7"/>
</g>
<!-- Node6 -->
<g id="node6" class="node">
<title>Node6</title>
<g id="a_node6"><a xlink:title=" ">
<polygon fill="none" stroke="black" points="161,-494.5 161,-515.5 292,-515.5 292,-494.5 161,-494.5"/>
<text text-anchor="middle" x="226.5" y="-501.9" font-family="Unifont" font-size="12.00">src/system/system.h</text>
</a>
</g>
</g>
<!-- Node1&#45;&gt;Node6 -->
<g id="edge5" class="edge">
<title>Node1&#45;&gt;Node6</title>
<path fill="none" stroke="midnightblue" d="M63.21,-321.9C71.42,-352.54 98.9,-440.11 155,-485 157.09,-486.67 159.3,-488.2 161.62,-489.6"/>
<polygon fill="midnightblue" stroke="midnightblue" points="160.46,-492.94 170.95,-494.4 163.66,-486.71 160.46,-492.94"/>
</g>
<!-- Node7 -->
<g id="node7" class="node">
<title>Node7</title>
<g id="a_node7"><a xlink:title=" ">
<polygon fill="none" stroke="black" points="164,-441 164,-475 289,-475 289,-441 164,-441"/>
<text text-anchor="start" x="172" y="-461.4" font-family="Unifont" font-size="12.00">src/matrixKeyboard</text>
<text text-anchor="middle" x="226.5" y="-448.4" font-family="Unifont" font-size="12.00">/matrixKeyboard.h</text>
</a>
</g>
</g>
<!-- Node1&#45;&gt;Node7 -->
<g id="edge6" class="edge">
<title>Node1&#45;&gt;Node7</title>
<path fill="none" stroke="midnightblue" d="M66.15,-321.54C78.97,-344.55 112.51,-399.71 155,-431 157.45,-432.81 160.04,-434.51 162.72,-436.11"/>
<polygon fill="midnightblue" stroke="midnightblue" points="161.08,-439.2 171.54,-440.88 164.41,-433.04 161.08,-439.2"/>
</g>
<!-- Node9 -->
<g id="node9" class="node">
<title>Node9</title>
<g id="a_node9"><a xlink:title=" ">
<polygon fill="none" stroke="black" points="188,-400.5 188,-421.5 265,-421.5 265,-400.5 188,-400.5"/>
<text text-anchor="middle" x="226.5" y="-407.9" font-family="Unifont" font-size="12.00">ioBuffer.h</text>
</a>
</g>
</g>
<!-- Node1&#45;&gt;Node9 -->
<g id="edge8" class="edge">
<title>Node1&#45;&gt;Node9</title>
<path fill="none" stroke="midnightblue" d="M70.18,-321.73C86.18,-338.85 119.9,-372.3 155,-391 162.18,-394.83 170.18,-397.99 178.14,-400.58"/>
<polygon fill="midnightblue" stroke="midnightblue" points="177.18,-403.95 187.76,-403.47 179.19,-397.24 177.18,-403.95"/>
</g>
<!-- Node10 -->
<g id="node10" class="node">
<title>Node10</title>
<g id="a_node10"><a xlink:title=" ">
<polygon fill="none" stroke="black" points="176,-360.5 176,-381.5 277,-381.5 277,-360.5 176,-360.5"/>
<text text-anchor="middle" x="226.5" y="-367.9" font-family="Unifont" font-size="12.00">alarmHandler.h</text>
</a>
</g>
</g>
<!-- Node1&#45;&gt;Node10 -->
<g id="edge10" class="edge">
<title>Node1&#45;&gt;Node10</title>
<path fill="none" stroke="midnightblue" d="M83.1,-321.5C102.06,-330.08 129.96,-342.19 155,-351 161.45,-353.27 168.3,-355.47 175.1,-357.53"/>
<polygon fill="midnightblue" stroke="midnightblue" points="174.38,-360.96 184.96,-360.43 176.36,-354.25 174.38,-360.96"/>
</g>
<!-- Node11 -->
<g id="node11" class="node">
<title>Node11</title>
<g id="a_node11"><a xlink:title=" ">
<polygon fill="none" stroke="black" points="179,-320.5 179,-341.5 274,-341.5 274,-320.5 179,-320.5"/>
<text text-anchor="middle" x="226.5" y="-327.9" font-family="Unifont" font-size="12.00">alarmStates.h</text>
</a>
</g>
</g>
<!-- Node1&#45;&gt;Node11 -->
<g id="edge11" class="edge">
<title>Node1&#45;&gt;Node11</title>
<path fill="none" stroke="midnightblue" d="M119.14,-318.11C135.25,-320.06 152.68,-322.17 168.69,-324.11"/>
<polygon fill="midnightblue" stroke="midnightblue" points="168.62,-327.63 178.97,-325.36 169.46,-320.68 168.62,-327.63"/>
</g>
<!-- Node12 -->
<g id="node12" class="node">
<title>Node12</title>
<g id="a_node12"><a xlink:title=" ">
<polygon fill="none" stroke="black" points="176,-280.5 176,-301.5 277,-301.5 277,-280.5 176,-280.5"/>
<text text-anchor="middle" x="226.5" y="-287.9" font-family="Unifont" font-size="12.00">userPassword.h</text>
</a>
</g>
</g>
<!-- Node1&#45;&gt;Node12 -->
<g id="edge13" class="edge">
<title>Node1&#45;&gt;Node12</title>
<path fill="none" stroke="midnightblue" d="M119.14,-303.89C134.19,-302.07 150.4,-300.1 165.52,-298.27"/>
<polygon fill="midnightblue" stroke="midnightblue" points="166.28,-301.7 175.78,-297.03 165.44,-294.75 166.28,-301.7"/>
</g>
<!-- Node13 -->
<g id="node13" class="node">
<title>Node13</title>
<g id="a_node13"><a xlink:title=" ">
<polygon fill="none" stroke="black" points="182,-240.5 182,-261.5 271,-261.5 271,-240.5 182,-240.5"/>
<text text-anchor="middle" x="226.5" y="-247.9" font-family="Unifont" font-size="12.00">procSerial.h</text>
</a>
</g>
</g>
<!-- Node1&#45;&gt;Node13 -->
<g id="edge14" class="edge">
<title>Node1&#45;&gt;Node13</title>
<path fill="none" stroke="midnightblue" d="M83.1,-300.5C102.06,-291.92 129.96,-279.81 155,-271 161.45,-268.73 168.3,-266.53 175.1,-264.47"/>
<polygon fill="midnightblue" stroke="midnightblue" points="176.36,-267.75 184.96,-261.57 174.38,-261.04 176.36,-267.75"/>
</g>
<!-- Node14 -->
<g id="node14" class="node">
<title>Node14</title>
<g id="a_node14"><a xlink:title=" ">
<polygon fill="none" stroke="black" points="185,-200.5 185,-221.5 268,-221.5 268,-200.5 185,-200.5"/>
<text text-anchor="middle" x="226.5" y="-207.9" font-family="Unifont" font-size="12.00">procLogin.h</text>
</a>
</g>
</g>
<!-- Node1&#45;&gt;Node14 -->
<g id="edge15" class="edge">
<title>Node1&#45;&gt;Node14</title>
<path fill="none" stroke="midnightblue" d="M70.18,-300.27C86.18,-283.15 119.9,-249.7 155,-231 161.19,-227.7 167.98,-224.9 174.82,-222.53"/>
<polygon fill="midnightblue" stroke="midnightblue" points="176.35,-225.72 184.83,-219.36 174.24,-219.04 176.35,-225.72"/>
</g>
<!-- Node15 -->
<g id="node15" class="node">
<title>Node15</title>
<g id="a_node15"><a xlink:title=" ">
<polygon fill="none" stroke="black" points="188,-160.5 188,-181.5 265,-181.5 265,-160.5 188,-160.5"/>
<text text-anchor="middle" x="226.5" y="-167.9" font-family="Unifont" font-size="12.00">procMenu.h</text>
</a>
</g>
</g>
<!-- Node1&#45;&gt;Node15 -->
<g id="edge16" class="edge">
<title>Node1&#45;&gt;Node15</title>
<path fill="none" stroke="midnightblue" d="M65.95,-300.17C78.37,-276.59 111.15,-220.36 155,-191 161.91,-186.37 169.9,-182.8 177.95,-180.05"/>
<polygon fill="midnightblue" stroke="midnightblue" points="179.19,-183.33 187.75,-177.09 177.16,-176.63 179.19,-183.33"/>
</g>
<!-- Node16 -->
<g id="node16" class="node">
<title>Node16</title>
<g id="a_node16"><a xlink:title=" ">
<polygon fill="none" stroke="black" points="182,-120.5 182,-141.5 271,-141.5 271,-120.5 182,-120.5"/>
<text text-anchor="middle" x="226.5" y="-127.9" font-family="Unifont" font-size="12.00">procReboot.h</text>
</a>
</g>
</g>
<!-- Node1&#45;&gt;Node16 -->
<g id="edge17" class="edge">
<title>Node1&#45;&gt;Node16</title>
<path fill="none" stroke="midnightblue" d="M63.75,-300.14C72.97,-271.22 102.12,-191.78 155,-151 160.09,-147.07 165.92,-143.92 171.99,-141.38"/>
<polygon fill="midnightblue" stroke="midnightblue" points="173.46,-144.58 181.68,-137.89 171.08,-137.99 173.46,-144.58"/>
</g>
<!-- Node17 -->
<g id="node17" class="node">
<title>Node17</title>
<g id="a_node17"><a xlink:title=" ">
<polygon fill="none" stroke="black" points="170,-80.5 170,-101.5 283,-101.5 283,-80.5 170,-80.5"/>
<text text-anchor="middle" x="226.5" y="-87.9" font-family="Unifont" font-size="12.00">changePassword.h</text>
</a>
</g>
</g>
<!-- Node1&#45;&gt;Node17 -->
<g id="edge18" class="edge">
<title>Node1&#45;&gt;Node17</title>
<path fill="none" stroke="midnightblue" d="M62.32,-300.44C68.61,-267.22 92.59,-163.88 155,-111 156.95,-109.34 159.04,-107.83 161.21,-106.43"/>
<polygon fill="midnightblue" stroke="midnightblue" points="162.9,-109.5 170.02,-101.66 159.57,-103.35 162.9,-109.5"/>
</g>
<!-- Node18 -->
<g id="node18" class="node">
<title>Node18</title>
<g id="a_node18"><a xlink:title=" ">
<polygon fill="none" stroke="black" points="173,-40.5 173,-61.5 280,-61.5 280,-40.5 173,-40.5"/>
<text text-anchor="middle" x="226.5" y="-47.9" font-family="Unifont" font-size="12.00">storePassword.h</text>
</a>
</g>
</g>
<!-- Node1&#45;&gt;Node18 -->
<g id="edge19" class="edge">
<title>Node1&#45;&gt;Node18</title>
<path fill="none" stroke="midnightblue" d="M61.42,-300.27C65.24,-262.74 83.15,-136.09 155,-71 157.67,-68.58 160.62,-66.45 163.75,-64.57"/>
<polygon fill="midnightblue" stroke="midnightblue" points="165.6,-67.56 172.96,-59.94 162.45,-61.31 165.6,-67.56"/>
</g>
<!-- Node19 -->
<g id="node19" class="node">
<title>Node19</title>
<g id="a_node19"><a xlink:title=" ">
<polygon fill="none" stroke="black" points="167,-0.5 167,-21.5 286,-21.5 286,-0.5 167,-0.5"/>
<text text-anchor="middle" x="226.5" y="-7.9" font-family="Unifont" font-size="12.00">src/Debug/Debug.h</text>
</a>
</g>
</g>
<!-- Node1&#45;&gt;Node19 -->
<g id="edge20" class="edge">
<title>Node1&#45;&gt;Node19</title>
<path fill="none" stroke="midnightblue" d="M60.74,-300.28C62.27,-258.99 73.44,-108.65 155,-31 156.49,-29.59 158.06,-28.27 159.72,-27.05"/>
<polygon fill="midnightblue" stroke="midnightblue" points="161.82,-29.86 168.53,-21.66 158.17,-23.89 161.82,-29.86"/>
</g>
<!-- Node4 -->
<g id="node4" class="node">
<title>Node4</title>
<g id="a_node4"><a xlink:title=" ">
<polygon fill="none" stroke="#bfbfbf" points="334,-574.5 334,-595.5 471,-595.5 471,-574.5 334,-574.5"/>
<text text-anchor="middle" x="402.5" y="-581.9" font-family="Unifont" font-size="12.00">DFRobot_RGBLCD1602.h</text>
</a>
</g>
</g>
<!-- Node3&#45;&gt;Node4 -->
<g id="edge3" class="edge">
<title>Node3&#45;&gt;Node4</title>
<path fill="none" stroke="midnightblue" d="M298.02,-585C306.55,-585 315.3,-585 323.93,-585"/>
<polygon fill="midnightblue" stroke="midnightblue" points="323.98,-588.5 333.98,-585 323.98,-581.5 323.98,-588.5"/>
</g>
<!-- Node8 -->
<g id="node8" class="node">
<title>Node8</title>
<g id="a_node8"><a xlink:title=" ">
<polygon fill="none" stroke="#bfbfbf" points="370,-400.5 370,-421.5 435,-421.5 435,-400.5 370,-400.5"/>
<text text-anchor="middle" x="402.5" y="-407.9" font-family="Unifont" font-size="12.00">stdint.h</text>
</a>
</g>
</g>
<!-- Node7&#45;&gt;Node8 -->
<g id="edge7" class="edge">
<title>Node7&#45;&gt;Node8</title>
<path fill="none" stroke="midnightblue" d="M289.34,-441.3C312.67,-434.99 338.65,-427.98 359.73,-422.28"/>
<polygon fill="midnightblue" stroke="midnightblue" points="360.9,-425.59 369.65,-419.6 359.08,-418.83 360.9,-425.59"/>
</g>
<!-- Node9&#45;&gt;Node8 -->
<g id="edge9" class="edge">
<title>Node9&#45;&gt;Node8</title>
<path fill="none" stroke="midnightblue" d="M265.26,-411C293.12,-411 331.03,-411 359.79,-411"/>
<polygon fill="midnightblue" stroke="midnightblue" points="359.93,-414.5 369.93,-411 359.93,-407.5 359.93,-414.5"/>
</g>
<!-- Node11&#45;&gt;Node8 -->
<g id="edge12" class="edge">
<title>Node11&#45;&gt;Node8</title>
<path fill="none" stroke="midnightblue" d="M271.34,-341.6C280.3,-344.28 289.57,-347.43 298,-351 326.65,-363.14 357.22,-381.63 377.64,-394.87"/>
<polygon fill="midnightblue" stroke="midnightblue" points="375.73,-397.79 386.01,-400.36 379.57,-391.95 375.73,-397.79"/>
</g>
</g>
</svg>
